<svg id="lets-transport-logo" xmlns="http://www.w3.org/2000/svg" width="172.701" height="38.058" viewBox="0 0 172.701 38.058">
  <path id="Path_26723" data-name="Path 26723" d="M293.4,41.867V28.959l16.47-9.519,5.878,3.392L310.455,25.9l5.3,3.061V41.867l-5.876,3.394V32.353l-5.3-3.061-5.3,3.061v6.12l5.494,3.191V48.43Z" transform="translate(-247.276 -16.384)" fill="#fff"/>
  <path id="Path_26724" data-name="Path 26724" d="M3.385,67.188a2.044,2.044,0,0,0,.314.943.8.8,0,0,0,.692.325,2.64,2.64,0,0,0,1.017-.226,3.284,3.284,0,0,0,.8-.437l.7,1.627a5.021,5.021,0,0,1-1.594,1.239,4.2,4.2,0,0,1-1.907.49,3.1,3.1,0,0,1-2.144-.674,3.261,3.261,0,0,1-1-1.7A10.07,10.07,0,0,1,.011,66.4L0,54.52H3.3v11a13.205,13.205,0,0,0,.083,1.663ZM10.792,68a3.065,3.065,0,0,0,1.918.523q.511,0,.965-.046a11.434,11.434,0,0,0,2.023-.454q1.071-.338,1.745-.605l.5,2.006a5.372,5.372,0,0,1-1.228.739,11.565,11.565,0,0,1-2,.715,8.8,8.8,0,0,1-2.275.308,6.858,6.858,0,0,1-3.344-.7,3.991,3.991,0,0,1-1.8-2.11,10.138,10.138,0,0,1-.553-3.658A8.776,8.776,0,0,1,7.3,61.327a3.861,3.861,0,0,1,1.82-1.978,7.335,7.335,0,0,1,3.367-.657,6.236,6.236,0,0,1,3.8,1.053,4.124,4.124,0,0,1,1.536,3.3c.016.179.024.439.024.786,0,.418-.016.806-.047,1.162s-.053.582-.069.674l-7.606.443A2.241,2.241,0,0,0,10.792,68Zm3.837-4.873q0-1.86-2.187-1.861a2.247,2.247,0,0,0-1.663.582,2.688,2.688,0,0,0-.663,1.767l4.5-.173a3.049,3.049,0,0,0,.013-.3Zm8.065,2.419a13.183,13.183,0,0,0,.082,1.657,2.089,2.089,0,0,0,.314.943.786.786,0,0,0,.685.327,2.673,2.673,0,0,0,1.036-.233,3.207,3.207,0,0,0,.786-.443l.7,1.641a5.038,5.038,0,0,1-1.586,1.258,4.1,4.1,0,0,1-1.9.489,2.863,2.863,0,0,1-2.65-1.221,5.83,5.83,0,0,1-.756-3.1V66.54l-.013-5.106H18.108V58.972h1.278V56.158l3.3-.764v3.578h2.489l-.314,2.465H22.683l.011,4.012ZM29,68.125a8.722,8.722,0,0,0,2.3.371,3.7,3.7,0,0,0,1.523-.25.863.863,0,0,0,.534-.843.786.786,0,0,0-.366-.656,3.063,3.063,0,0,0-.907-.437c-.36-.112-.854-.242-1.482-.388l-.489-.116a4.424,4.424,0,0,1-2.29-1.314A3.3,3.3,0,0,1,27,62.247a4.154,4.154,0,0,1,.058-.733,2.872,2.872,0,0,1,1.622-2.146,7.523,7.523,0,0,1,3.378-.681,8.544,8.544,0,0,1,4.087,1l-.327,2.534a7.038,7.038,0,0,0-1.2-.424c-.5-.135-1.011-.25-1.53-.343a11.212,11.212,0,0,0-1.232-.082q-1.607,0-1.605.825a.943.943,0,0,0,.534.861,5.647,5.647,0,0,0,1.663.511A7.078,7.078,0,0,1,35.6,64.944a3.031,3.031,0,0,1,1.163,2.43,3.348,3.348,0,0,1-.715,2.232,3.913,3.913,0,0,1-1.844,1.21,8.052,8.052,0,0,1-2.465.36,10.265,10.265,0,0,1-1.2-.069,9.389,9.389,0,0,1-3.872-1.221l.291-2.628A6.78,6.78,0,0,0,29,68.125Zm78.285.352a.806.806,0,0,1-.692-.327,2.067,2.067,0,0,1-.314-.943,13.546,13.546,0,0,1-.08-1.657v-6.4l-3.292-.314v1.012a4.733,4.733,0,0,0-1.314-.808,4.378,4.378,0,0,0-5.169,1.308,8.261,8.261,0,0,0-1.082,4.517,10.5,10.5,0,0,0,.879,4.4,3.321,3.321,0,0,0,3.331,1.929c.186,0,.325,0,.418-.011a3.616,3.616,0,0,0,1.9-.6,4.947,4.947,0,0,0,1.39-1.435,2.921,2.921,0,0,0,3.034,2.034,4.13,4.13,0,0,0,1.907-.489,5.371,5.371,0,0,0,.689-.423l-.769-1.949a2.515,2.515,0,0,1-.838.157ZM102.9,67.012a3.212,3.212,0,0,1-.965,1,2.2,2.2,0,0,1-1.243.406l-.157-.011a1.738,1.738,0,0,1-1.415-1.058,5.386,5.386,0,0,1-.494-2.3,7.1,7.1,0,0,1,.192-1.6,3.505,3.505,0,0,1,.681-1.431,1.611,1.611,0,0,1,1.325-.605,2.784,2.784,0,0,1,2.081.965Zm-20.141-1.47a13.184,13.184,0,0,0,.082,1.657,2.108,2.108,0,0,0,.314.943.786.786,0,0,0,.687.327,2.673,2.673,0,0,0,1.034-.233,3.144,3.144,0,0,0,.786-.443l.7,1.641a5.045,5.045,0,0,1-1.588,1.258,4.1,4.1,0,0,1-1.9.49,2.867,2.867,0,0,1-2.652-1.221,5.811,5.811,0,0,1-.756-3.1v-.314l-.011-5.106h-1.28V58.972h1.28V56.158l3.3-.764v3.578h2.489l-.314,2.465H82.745l.013,4.012ZM94.24,61.269a3.773,3.773,0,0,0-.931-.1,3.048,3.048,0,0,0-1.4.349,3.21,3.21,0,0,0-1.122.924,1.99,1.99,0,0,0-.435,1.215V70.89H87.076V59.136l3.279-.314v1.721a4.168,4.168,0,0,1,3.559-1.861,3.616,3.616,0,0,1,1.028.14,2.673,2.673,0,0,1,.612.233l-.442,2.506a8.378,8.378,0,0,0-.872-.291Zm37.536-2.122,3.284-.325V60.3a3.081,3.081,0,0,1,.594-.645,4.245,4.245,0,0,1,1.1-.674,3.512,3.512,0,0,1,1.454-.3q2.65,0,3.54,1.886a10.353,10.353,0,0,1,.89,4.455,8.19,8.19,0,0,1-1.082,4.5,3.918,3.918,0,0,1-3.57,1.663,5.108,5.108,0,0,1-1.616-.261,4.172,4.172,0,0,1-1.3-.67v5.117l-3.279-.209Zm3.616,8.937a5.67,5.67,0,0,0,.8.267,3.773,3.773,0,0,0,.965.123,1.624,1.624,0,0,0,1.325-.594,3.352,3.352,0,0,0,.674-1.415,7.533,7.533,0,0,0,.186-1.663,5.466,5.466,0,0,0-.267-1.8,2.769,2.769,0,0,0-.72-1.174,1.473,1.473,0,0,0-1-.407,2.237,2.237,0,0,0-1.459.457,3.825,3.825,0,0,0-.838.9v5.156a2.592,2.592,0,0,0,.332.157Zm16.261-9.039a3.914,3.914,0,0,1,2.064,1.64,6.689,6.689,0,0,1,.871,3.773v.965A6.9,6.9,0,0,1,153.815,69a3.93,3.93,0,0,1-1.993,1.729,8.109,8.109,0,0,1-2.83.453,9.038,9.038,0,0,1-2.657-.366,3.906,3.906,0,0,1-2.064-1.64,6.714,6.714,0,0,1-.872-3.773v-.954a6.935,6.935,0,0,1,.773-3.587,3.934,3.934,0,0,1,1.995-1.729,8.068,8.068,0,0,1,2.83-.454A9.048,9.048,0,0,1,151.653,59.044Zm-4.473,8.461a1.874,1.874,0,0,0,1.814.965,1.851,1.851,0,0,0,1.855-.989,5.935,5.935,0,0,0,.472-2.547,5.489,5.489,0,0,0-.513-2.577,1.877,1.877,0,0,0-1.814-.959,1.852,1.852,0,0,0-1.855.983,5.923,5.923,0,0,0-.472,2.54,5.563,5.563,0,0,0,.512,2.586Zm15.411-6.236a3.773,3.773,0,0,0-.931-.1,3.047,3.047,0,0,0-1.394.349,3.21,3.21,0,0,0-1.122.924,1.979,1.979,0,0,0-.435,1.215V70.89h-3.279V59.136l3.279-.314v1.721a4.168,4.168,0,0,1,3.558-1.861,3.623,3.623,0,0,1,1.03.14,2.618,2.618,0,0,1,.61.233l-.442,2.5a8.258,8.258,0,0,0-.872-.285Zm6.51,4.273a13.187,13.187,0,0,0,.082,1.657,2.089,2.089,0,0,0,.314.943.786.786,0,0,0,.685.327,2.673,2.673,0,0,0,1.036-.233,3.206,3.206,0,0,0,.786-.443l.7,1.641a5.039,5.039,0,0,1-1.586,1.258,4.1,4.1,0,0,1-1.9.489,2.863,2.863,0,0,1-2.65-1.221,5.83,5.83,0,0,1-.756-3.1V66.54l-.013-5.106h-1.278V58.972h1.278V56.158l3.3-.764v3.578h2.489l-.314,2.465h-2.187l.011,4.012Zm-49.238,5.641a2.753,2.753,0,0,1-2.6-1.2,6.121,6.121,0,0,1-.7-3.122V64.449a4.772,4.772,0,0,0-.431-2.314,1.6,1.6,0,0,0-1.506-.744,2.479,2.479,0,0,0-1.075.233,3.6,3.6,0,0,0-.821.511,1.6,1.6,0,0,0-.325.314v8.442h-3.273V59.147l3.279-.314v1.454c0-.055.178-.219.535-.5a6.523,6.523,0,0,1,1.314-.761,3.963,3.963,0,0,1,1.64-.349,3.53,3.53,0,0,1,3.036,1.239,6.075,6.075,0,0,1,.918,3.646v3.941a12.884,12.884,0,0,0,.093,1.581,1.6,1.6,0,0,0,.314.819Zm3.207-3.058a8.722,8.722,0,0,0,2.3.371,3.7,3.7,0,0,0,1.523-.25.863.863,0,0,0,.535-.843.786.786,0,0,0-.366-.656,3.064,3.064,0,0,0-.907-.437c-.36-.112-.854-.242-1.482-.388l-.489-.116a4.424,4.424,0,0,1-2.29-1.314,3.3,3.3,0,0,1-.821-2.24,4.155,4.155,0,0,1,.058-.733,2.872,2.872,0,0,1,1.622-2.146,7.523,7.523,0,0,1,3.378-.681,8.544,8.544,0,0,1,4.087,1l-.327,2.534a7.039,7.039,0,0,0-1.2-.424c-.5-.135-1.011-.25-1.53-.343a11.214,11.214,0,0,0-1.232-.082q-1.605,0-1.605.825a.943.943,0,0,0,.535.861,5.648,5.648,0,0,0,1.663.511,7.078,7.078,0,0,1,3.152,1.372,3.031,3.031,0,0,1,1.163,2.43,3.348,3.348,0,0,1-.715,2.232,3.913,3.913,0,0,1-1.844,1.21,8.052,8.052,0,0,1-2.465.36,10.265,10.265,0,0,1-1.2-.069,9.386,9.386,0,0,1-3.87-1.221l.291-2.628A6.942,6.942,0,0,0,123.07,68.125Z" transform="translate(0 -45.949)" fill="#101820"/>
  <path id="Path_26725" data-name="Path 26725" d="M281.653,3.171,276.16,0l-5.835,3.369L265.9,5.922,259.68,9.514V11.1l5.493,3.171V12.686l16.48-9.516Z" transform="translate(-218.857 0)" fill="#ff671f"/>
  <path id="Path_26726" data-name="Path 26726" d="M276.16,82.721l-10.987-6.343V63.692L259.68,60.52V79.55l16.48,9.514,1.085-.641V82.081Z" transform="translate(-218.857 -51.006)" fill="#e04e39"/>
  <path id="Path_26727" data-name="Path 26727" d="M335.054,46.693l-5.494,3.171v1.3l5.494,3.171,5.493-3.171v-1.3ZM346.04,40.35l-5.493,3.171,5.493,3.172v1.3l5.493-3.171v-1.3Z" transform="translate(-277.751 -34.007)" fill="#ff671f"/>
  <path id="Path_26728" data-name="Path 26728" d="M335.054,104.042l-5.494-3.172v6.343l5.494,3.19,1.129-.663v-6.351Z" transform="translate(-277.751 -85.013)" fill="#e04e39"/>
  <path id="Path_26729" data-name="Path 26729" d="M364.51,70.036V89.064l16.478-9.514V60.52L375.5,63.692V76.377L370,79.55V66.863Z" transform="translate(-307.207 -51.006)" fill="#a72b2a"/>
</svg>
